<?xml version="1.0" encoding="utf-8"?>
<!-- Generator: Adobe Illustrator 24.1.2, SVG Export Plug-In . SVG Version: 6.00 Build 0)  -->
<svg version="1.1" id="Layer_1" xmlns="http://www.w3.org/2000/svg" xmlns:xlink="http://www.w3.org/1999/xlink" x="0px" y="0px"
	 viewBox="0 0 861 102.7" style="enable-background:new 0 0 861 102.7;" xml:space="preserve">
<style type="text/css">
	.st0{fill:none;stroke:#000000;stroke-miterlimit:10;}
	.st1{fill:none;stroke:#000000;stroke-miterlimit:10;stroke-dasharray:11.96,11.96;}
	.st2{fill:#FF0000;}
	.st3{fill:#FBB03B;}
	.st4{fill:#00FF00;}
	.st5{fill-rule:evenodd;clip-rule:evenodd;}
	.st6{fill:none;stroke:#000000;stroke-width:3;stroke-miterlimit:10;}
</style>
<line class="st0" x1="861" y1="69.7" x2="855" y2="69.7"/>
<polyline class="st1" points="843,69.7 815.8,69.7 735.6,69.7 688.6,69.7 636.6,69.7 617.3,69.7 617.1,69.7 556.6,69.7 517.9,69.7 
	517.5,69.7 503.6,69.7 473,69.7 446.6,69.7 395.6,69.7 382.1,69.7 351.5,69.7 341.6,69.7 292.6,69.7 252.5,69.7 252.3,69.7 
	238.6,69.7 179.6,69.7 107.3,69.7 54,69.7 12,69.7 "/>
<line class="st0" x1="6" y1="69.7" x2="0" y2="69.7"/>
<rect x="54" y="39.7" class="st2" width="125.6" height="63"/>
<rect x="613.5" y="39.7" class="st2" width="202.2" height="63"/>
<rect x="107.3" y="39.7" class="st3" width="244.2" height="63"/>
<rect x="502.6" y="39.7" class="st3" width="134" height="63"/>
<rect x="341.6" y="40.2" class="st4" width="160" height="62"/>
<polygon class="st5" points="381.3,102.4 381.1,71.1 381,39.7 427.9,55.2 474.8,70.6 428,86.5 "/>
<polyline class="st6" points="107.3,39.7 107.3,69.7 107.4,102.7 "/>
<polyline class="st6" points="179.5,39.7 179.6,69.7 179.6,102.7 "/>
<polyline class="st6" points="238.5,39.7 238.6,69.7 238.6,102.7 "/>
<polyline class="st6" points="292.5,38.2 292.6,69.7 292.6,101.2 292.6,102.7 "/>
<polyline class="st6" points="341.5,38.2 341.6,69.7 341.6,101.2 341.6,102.7 "/>
<polyline class="st6" points="395.6,102.7 395.6,101.2 395.6,97.9 395.6,97.8 395.6,69.7 395.5,44.2 395.5,39.2 "/>
<polyline class="st6" points="446.5,39.2 446.5,61 446.6,69.7 446.6,80.5 446.6,101.2 446.6,102.7 "/>
<polyline class="st6" points="503.5,39.2 503.6,69.7 503.6,101.2 503.6,102.7 "/>
<polyline class="st6" points="556.6,102.7 556.6,101.2 556.6,69.7 556.5,38.2 "/>
<polyline class="st6" points="636.5,38.2 636.6,69.7 636.6,101.2 636.7,102.7 "/>
<polyline class="st6" points="688.5,38.2 688.6,69.7 688.6,101.2 688.6,102.7 "/>
<polyline class="st6" points="735.6,102.7 735.6,101.2 735.6,69.7 735.5,38.2 "/>
<g>
	<path d="M54,23.3l16.6-9.1v2.6l-14,7.5v0.1l14,7.5v2.6L54,25.4V23.3z"/>
	<path d="M83,22.9v2.5h-8.9v-2.5H83z"/>
	<path d="M92.5,12.8L92.5,12.8l-4.1,2.3l-0.6-2.6l5.1-2.9h2.7v24.8h-3V12.8z"/>
</g>
<g>
	<path d="M671.4,26.9l-28.2,7.9v-2.3l23.9-6.5v-0.1l-23.9-6.5v-2.3l28.2,7.9V26.9z"/>
	<path d="M701.7,15.7h-15.1l-1.5,5.5c0.9-0.1,1.8-0.1,3.2-0.1c3,0,6.1,0.4,8.5,1.2c3.1,1,5.6,2.8,5.6,5.5c0,4.2-6.1,7.4-14.7,7.4
		c-4.3,0-8-0.7-9.8-1.3l1.3-2.2c1.6,0.5,4.9,1.2,8.4,1.2c5,0,9.4-1.8,9.4-4.7c-0.1-2.8-3.5-4.8-11.4-4.8c-2.2,0-4,0.1-5.5,0.2
		l2.6-10.3h18.9V15.7z"/>
	<path d="M735.5,23.8c0,7.3-5,11.4-13.7,11.4c-7.7,0-12.9-3.9-13.1-11.1c0-7.2,5.7-11.2,13.7-11.2C730.8,12.9,735.5,16.9,735.5,23.8
		z M714.1,24.1c0,5.6,3.2,8.8,8,8.8c5.5,0,8.1-3.5,8.1-9c0-5.3-2.5-8.8-8-8.8C717.5,15.1,714.1,18.2,714.1,24.1z"/>
</g>
<g>
	<path d="M152,15.3h-9l-0.9,5c0.5-0.1,1-0.1,1.9-0.1c1.8,0,3.6,0.3,5.1,1c1.8,0.9,3.4,2.5,3.4,5c0,3.8-3.7,6.6-8.8,6.6
		c-2.6,0-4.7-0.6-5.9-1.2l0.8-2c1,0.5,2.9,1.1,5,1.1c3,0,5.6-1.6,5.6-4.2c0-2.5-2.1-4.3-6.8-4.3c-1.3,0-2.4,0.1-3.3,0.2l1.5-9.3H152
		V15.3z"/>
	<path d="M199.3,15.4L199.3,15.4l-3.4,1.8l-0.5-2l4.2-2.3h2.2v19.4h-2.5V15.4z"/>
	<path d="M221.8,22.4c0,6.6-2.5,10.2-6.8,10.2c-3.8,0-6.4-3.6-6.4-10c0-6.5,2.8-10.1,6.8-10.1C219.5,12.6,221.8,16.2,221.8,22.4z
		 M211.3,22.7c0,5,1.6,7.9,3.9,7.9c2.7,0,4-3.1,4-8.1c0-4.8-1.2-7.9-3.9-7.9C212.9,14.6,211.3,17.4,211.3,22.7z"/>
	<path d="M256.7,17.4L256.7,17.4l-3.4,1.8l-0.5-2L257,15h2.2v19.4h-2.5V17.4z"/>
	<path d="M277.9,17.2h-7.4l-0.7,5c0.4-0.1,0.9-0.1,1.6-0.1c1.5,0,3,0.3,4.2,1c1.5,0.9,2.8,2.5,2.8,5c0,3.8-3,6.6-7.2,6.6
		c-2.1,0-3.9-0.6-4.8-1.2l0.7-2c0.8,0.5,2.4,1.1,4.2,1.1c2.5,0,4.6-1.6,4.6-4.2c0-2.5-1.7-4.3-5.6-4.3c-1.1,0-2,0.1-2.7,0.2l1.3-9.3
		h9.3V17.2z"/>
	<path d="M302.8,34.1v-1.6l2.1-2c5-4.7,7.2-7.2,7.2-10.1c0-2-1-3.8-3.9-3.8c-1.8,0-3.2,0.9-4.1,1.6l-0.8-1.8c1.3-1.1,3.3-2,5.5-2
		c4.2,0,5.9,2.9,5.9,5.6c0,3.6-2.6,6.5-6.7,10.4l-1.6,1.4V32h8.7v2.2H302.8z"/>
	<path d="M331.1,24.2c0,6.6-2.5,10.2-6.8,10.2c-3.8,0-6.4-3.6-6.4-10c0-6.5,2.8-10.1,6.8-10.1C328.7,14.4,331.1,18.1,331.1,24.2z
		 M320.5,24.5c0,5,1.6,7.9,3.9,7.9c2.7,0,4-3.1,4-8.1c0-4.8-1.2-7.9-3.9-7.9C322.2,16.4,320.5,19.3,320.5,24.5z"/>
	<path d="M354.4,31.5v-1.6l2.1-2c5-4.7,7.2-7.2,7.2-10.1c0-2-1-3.8-3.9-3.8c-1.8,0-3.2,0.9-4.1,1.6l-0.8-1.8c1.3-1.1,3.3-2,5.5-2
		c4.2,0,5.9,2.9,5.9,5.6c0,3.6-2.6,6.5-6.7,10.4l-1.6,1.4v0.1h8.7v2.2H354.4z"/>
	<path d="M381.3,14.3h-7.4l-0.7,5c0.4-0.1,0.9-0.1,1.6-0.1c1.5,0,3,0.3,4.2,1c1.5,0.9,2.8,2.5,2.8,5c0,3.8-3,6.6-7.2,6.6
		c-2.1,0-3.9-0.6-4.8-1.2l0.7-2c0.8,0.5,2.4,1.1,4.2,1.1c2.5,0,4.6-1.6,4.6-4.2c0-2.5-1.7-4.3-5.6-4.3c-1.1,0-2,0.1-2.7,0.2l1.3-9.3
		h9.3V14.3z"/>
	<path d="M412.6,29.1c0.7,0.5,2.5,1.2,4.3,1.2c3.4,0,4.4-2.1,4.4-3.8c0-2.7-2.5-3.9-5-3.9h-1.5v-2h1.5c1.9,0,4.3-1,4.3-3.3
		c0-1.6-1-2.9-3.4-2.9c-1.6,0-3,0.7-3.9,1.3l-0.7-1.9c1-0.7,3-1.5,5.1-1.5c3.8,0,5.6,2.3,5.6,4.6c0,2-1.2,3.7-3.6,4.6v0.1
		c2.4,0.5,4.3,2.3,4.3,5c0,3.1-2.4,5.8-7.1,5.8c-2.2,0-4.1-0.7-5.1-1.3L412.6,29.1z"/>
	<path d="M440.2,22.3c0,6.6-2.5,10.2-6.8,10.2c-3.8,0-6.4-3.6-6.4-10c0-6.5,2.8-10.1,6.8-10.1C437.9,12.4,440.2,16.1,440.2,22.3z
		 M429.7,22.6c0,5,1.6,7.9,3.9,7.9c2.7,0,4-3.1,4-8.1c0-4.8-1.2-7.9-3.9-7.9C431.3,14.5,429.7,17.3,429.7,22.6z"/>
	<path d="M461.8,29.1c0.7,0.5,2.5,1.2,4.3,1.2c3.4,0,4.4-2.1,4.4-3.8c0-2.7-2.5-3.9-5-3.9H464v-2h1.5c1.9,0,4.3-1,4.3-3.3
		c0-1.6-1-2.9-3.4-2.9c-1.6,0-3,0.7-3.9,1.3l-0.7-1.9c1-0.7,3-1.5,5.1-1.5c3.8,0,5.6,2.3,5.6,4.6c0,2-1.2,3.7-3.6,4.6v0.1
		c2.4,0.5,4.3,2.3,4.3,5c0,3.1-2.4,5.8-7.1,5.8c-2.2,0-4.1-0.7-5.1-1.3L461.8,29.1z"/>
	<path d="M488.1,15h-7.4l-0.7,5c0.4-0.1,0.9-0.1,1.6-0.1c1.5,0,3,0.3,4.2,1c1.5,0.9,2.8,2.5,2.8,5c0,3.8-3,6.6-7.2,6.6
		c-2.1,0-3.9-0.6-4.8-1.2l0.7-2c0.8,0.5,2.4,1.1,4.2,1.1c2.5,0,4.6-1.6,4.6-4.2c0-2.5-1.7-4.3-5.6-4.3c-1.1,0-2,0.1-2.7,0.2l1.3-9.3
		h9.3V15z"/>
	<path d="M526.3,32.3V27h-9v-1.7l8.7-12.4h2.8V25h2.7V27h-2.7v5.3H526.3z M526.3,25v-6.5c0-1,0-2,0.1-3h-0.1c-0.6,1.1-1.1,2-1.6,2.9
		l-4.8,6.6V25H526.3z"/>
	<path d="M546.4,22.4c0,6.6-2.5,10.2-6.8,10.2c-3.8,0-6.4-3.6-6.4-10c0-6.5,2.8-10.1,6.8-10.1C544,12.6,546.4,16.2,546.4,22.4z
		 M535.8,22.7c0,5,1.6,7.9,3.9,7.9c2.7,0,4-3.1,4-8.1c0-4.8-1.2-7.9-3.9-7.9C537.5,14.6,535.8,17.4,535.8,22.7z"/>
	<path d="M590,32.2v-5.3h-9v-1.7l8.7-12.4h2.8v12.1h2.7v2.1h-2.7v5.3H590z M590,24.8v-6.5c0-1,0-2,0.1-3H590c-0.6,1.1-1.1,2-1.6,2.9
		l-4.8,6.6v0.1H590z"/>
	<path d="M608.8,15h-7.4l-0.7,5c0.4-0.1,0.9-0.1,1.6-0.1c1.5,0,3,0.3,4.2,1c1.5,0.9,2.8,2.5,2.8,5c0,3.8-3,6.6-7.2,6.6
		c-2.1,0-3.9-0.6-4.8-1.2l0.7-2c0.8,0.5,2.4,1.1,4.2,1.1c2.5,0,4.6-1.6,4.6-4.2c0-2.5-1.7-4.3-5.6-4.3c-1.1,0-2,0.1-2.7,0.2l1.3-9.3
		h9.3V15z"/>
</g>
<circle class="st0" cx="104.3" cy="8.8" r="4.3"/>
<circle class="st0" cx="739.9" cy="10.9" r="4.3"/>
<g>
	<path d="M117.5,28.7c-0.6,0.3-1.9,0.8-3.5,0.8c-3.7,0-6.1-2.9-6.1-7.1c0-4.3,2.6-7.4,6.6-7.4c1.3,0,2.5,0.4,3.1,0.7l-0.5,2
		c-0.5-0.3-1.4-0.7-2.6-0.7c-2.8,0-4.3,2.4-4.3,5.3c0,3.2,1.8,5.2,4.2,5.2c1.3,0,2.1-0.4,2.7-0.7L117.5,28.7z"/>
</g>
<g>
	<path d="M753.8,31.8c-0.6,0.3-1.9,0.8-3.5,0.8c-3.7,0-6.1-2.9-6.1-7.1c0-4.3,2.6-7.4,6.6-7.4c1.3,0,2.5,0.4,3.1,0.7l-0.5,2
		c-0.5-0.3-1.4-0.7-2.6-0.7c-2.8,0-4.3,2.4-4.3,5.3c0,3.2,1.8,5.2,4.2,5.2c1.3,0,2.1-0.4,2.7-0.7L753.8,31.8z"/>
</g>
</svg>
