<svg id="Layer_1" data-name="Layer 1" xmlns="http://www.w3.org/2000/svg" viewBox="0 0 861 102.66"><defs><style>.cls-1,.cls-2,.cls-7{fill:none;stroke:#000;stroke-miterlimit:10;}.cls-2{stroke-dasharray:11.96 11.96;}.cls-3{fill:red;}.cls-4{fill:#fbb03b;}.cls-5{fill:lime;}.cls-6{fill-rule:evenodd;}.cls-7{stroke-width:3px;}</style></defs><line class="cls-1" x1="861" y1="69.65" x2="855" y2="69.65"/><polyline class="cls-2" points="843.04 69.65 815.75 69.65 735.57 69.65 688.57 69.65 636.58 69.65 617.25 69.65 617.12 69.65 556.57 69.65 517.88 69.65 517.5 69.65 503.58 69.65 472.96 69.65 446.57 69.65 395.57 69.65 382.13 69.65 351.5 69.65 341.57 69.65 292.57 69.65 252.5 69.65 252.25 69.65 238.57 69.65 179.57 69.65 107.32 69.65 54 69.65 11.98 69.65"/><line class="cls-1" x1="6" y1="69.65" y2="69.65"/><rect class="cls-3" x="54" y="39.65" width="198.5" height="63"/><rect class="cls-3" x="617.25" y="38.15" width="198.5" height="63"/><rect class="cls-4" x="252.25" y="38.15" width="99.25" height="63"/><rect class="cls-4" x="503.5" y="38.15" width="113.62" height="63"/><rect class="cls-5" x="341.5" y="39.15" width="162" height="62"/><polygon class="cls-6" points="381.3 102.39 381.14 71.05 380.98 39.71 427.89 55.15 474.79 70.58 428.04 86.49 381.3 102.39"/><path d="M264.59,287.88l-10.4,3.65,1.24,3.21,8.28-2.93h.15v27.27h6.22v-31.2Z" transform="translate(-194.5 -286.85)"/><path d="M327.13,315.58v-.1l3.81-2.3c10-6.34,16.4-11,16.4-16.76,0-4.46-4.32-9.07-14.57-9.07a28.17,28.17,0,0,0-13.48,3.17l2,3a21.44,21.44,0,0,1,10.11-2.64c7.1,0,9.45,2.93,9.45,6.1-.08,4.7-5.57,8.74-17.73,16.32l-5.05,3.22v2.59h30.39v-3.5Z" transform="translate(-194.5 -286.85)"/><path d="M405.27,302.23v-.1c5.86-1.39,8.78-4.12,8.78-7.34,0-3.79-4.24-7.44-13.62-7.44a31.64,31.64,0,0,0-12.45,2.4l1.69,3.07a24.05,24.05,0,0,1,9.52-2.06c5.93,0,8.35,2.21,8.35,4.7,0,3.7-5.94,5.28-10.62,5.28h-3.59v3.17h3.59c6.22,0,12.23,1.87,12.3,6.24.07,2.59-2.49,6.05-10.77,6.05a30.25,30.25,0,0,1-10.54-2l-1.76,3.27a34.56,34.56,0,0,0,12.38,2.11c11.42,0,17.36-4.37,17.36-9.36C415.89,305.88,411.13,303,405.27,302.23Z" transform="translate(-194.5 -286.85)"/><path d="M465.1,307.27V287.88h-7L436.9,307.8v2.78H459v8.5h6.08v-8.5h6.66v-3.31ZM459,296.85v10.42h-15.6v-.1l11.64-10.6c1.32-1.44,2.49-2.79,4-4.61h.22C459.09,293.59,459,295.22,459,296.85Z" transform="translate(-194.5 -286.85)"/><path d="M514.38,300.93a28.89,28.89,0,0,0-10.25-1.68,37.24,37.24,0,0,0-3.89.2l1.84-8h18.16v-3.55H497.46l-3.07,15c1.75-.14,3.88-.33,6.59-.33,9.52,0,13.62,2.88,13.69,6.91s-5.2,6.77-11.28,6.77a30.33,30.33,0,0,1-10.18-1.73l-1.61,3.22a33.33,33.33,0,0,0,11.87,1.92c10.32,0,17.72-4.56,17.72-10.66C521.19,305,518.11,302.33,514.38,300.93Z" transform="translate(-194.5 -286.85)"/><path d="M562.05,298.53c-5.27,0-9.23,1.64-11.5,3.6h-.22c1.1-5.13,6.45-10,16.56-11.09a36.93,36.93,0,0,1,4.83-.19V287.4a44.78,44.78,0,0,0-4.69.24c-6,.48-11.28,2.06-15.23,4.61-4.69,3.07-8.06,7.92-8.06,14.06,0,8.11,6.67,13.3,16.85,13.3,9.88,0,15.82-5.28,15.82-11C576.41,302.52,570.47,298.53,562.05,298.53Zm-1.46,17.81c-6.74,0-10.33-3.79-10.48-8.93a2.73,2.73,0,0,1,.74-1.87c1.75-2.25,5.34-3.84,9.22-3.84,5.94,0,9.82,2.69,9.82,7.15S566.15,316.34,560.59,316.34Z" transform="translate(-194.5 -286.85)"/><path d="M598.15,287.88v3.5h23.29v.1l-20.65,27.6h6.66l20.73-28.42v-2.78Z" transform="translate(-194.5 -286.85)"/><path d="M672,302.47v-.14c5.86-1.83,7.84-4.66,7.84-7.3,0-3.89-4.62-7.68-13.84-7.68-8.35,0-14.73,3.36-14.73,8.3,0,2.69,2.28,5.38,7.55,7l.07.15c-5.86,1.63-9.45,4.41-9.45,8.35,0,4.56,6,8.45,16,8.45,9.08,0,16.19-3.65,16.19-9.08C681.57,306.74,677.9,304,672,302.47Zm-14.65-7.1c0-2.69,2.93-5,8.28-5,5.79,0,8.06,2.6,8.06,5.09,0,2.83-3.15,4.75-7.25,5.67C660.91,300.17,657.32,298.49,657.32,295.37Zm8.21,21.17c-6.08,0-9.74-2.79-9.52-6,0-3,3-5.37,8.56-6.43,6.45,1.2,10.48,3,10.48,6.82C675.05,314.18,671.31,316.54,665.53,316.54Z" transform="translate(-194.5 -286.85)"/><path d="M718.69,287.35c-9.74,0-16.26,5.18-16.26,11.09,0,5.33,5.5,9.55,14.06,9.55,4.77,0,8.57-1.25,11.21-3.36h.22a13,13,0,0,1-6.3,8.31,23.09,23.09,0,0,1-10,3,40.82,40.82,0,0,1-5.2.14v3.46a45.18,45.18,0,0,0,5.93-.24,30.49,30.49,0,0,0,13.85-4.18,16.76,16.76,0,0,0,8.2-14.64C734.44,292.53,728.43,287.35,718.69,287.35Zm8.64,14.16c-1.68,1.87-5.05,3.26-9.37,3.26-5.57,0-9.16-2.73-9.16-6.62,0-4.42,3.89-7.59,9.38-7.59,6.74,0,9.74,4.09,9.74,9.41A2.08,2.08,0,0,1,727.33,301.51Z" transform="translate(-194.5 -286.85)"/><path d="M770.17,287.88l-10.4,3.65,1.25,3.21,8.27-2.93h.15v27.27h6.23v-31.2Z" transform="translate(-194.5 -286.85)"/><path d="M808.91,287.35c-9.67,0-16.55,5.76-16.55,16.22s6.44,16,15.75,16c10.54,0,16.55-5.86,16.55-16.47C824.66,293.21,819,287.35,808.91,287.35Zm-.44,29c-5.86,0-9.67-4.61-9.67-12.72,0-8.49,4.11-13,9.75-13,6.66,0,9.66,5,9.66,12.72C818.21,311.3,815.06,316.34,808.47,316.34Z" transform="translate(-194.5 -286.85)"/><path d="M860.47,287.88l-10.4,3.65,1.24,3.21,8.28-2.93h.14v27.27H866v-31.2Z" transform="translate(-194.5 -286.85)"/><path d="M898,287.88l-10.4,3.65,1.25,3.21,8.27-2.93h.15v27.27h6.23v-31.2Z" transform="translate(-194.5 -286.85)"/><path d="M950.76,287.88l-10.4,3.65,1.24,3.21,8.28-2.93H950v27.27h6.22v-31.2Z" transform="translate(-194.5 -286.85)"/><path d="M982.61,315.58v-.1l3.81-2.3c10-6.34,16.41-11,16.41-16.76,0-4.46-4.32-9.07-14.58-9.07a28.12,28.12,0,0,0-13.47,3.17l2.05,3a21.4,21.4,0,0,1,10.1-2.64c7.11,0,9.45,2.93,9.45,6.1-.07,4.7-5.56,8.74-17.72,16.32l-5,3.22v2.59H1004v-3.5Z" transform="translate(-194.5 -286.85)"/><polyline class="cls-7" points="107.26 39.65 107.32 69.65 107.39 102.65"/><polyline class="cls-7" points="179.51 39.65 179.57 69.65 179.64 102.65"/><polyline class="cls-7" points="238.51 39.65 238.57 69.65 238.64 102.65"/><polyline class="cls-7" points="292.51 38.15 292.57 69.65 292.64 101.15 292.64 102.65"/><polyline class="cls-7" points="341.5 38.15 341.57 69.65 341.64 101.15 341.64 102.65"/><polyline class="cls-7" points="395.64 102.65 395.64 101.15 395.63 97.86 395.63 97.85 395.57 69.65 395.52 44.17 395.51 39.15"/><polyline class="cls-7" points="446.5 39.15 446.55 60.96 446.57 69.65 446.59 80.52 446.64 101.15 446.64 102.65"/><polyline class="cls-7" points="503.51 39.15 503.58 69.65 503.64 101.15 503.65 102.65"/><polyline class="cls-7" points="556.64 102.65 556.64 101.15 556.57 69.65 556.51 38.15"/><polyline class="cls-7" points="636.51 38.15 636.58 69.65 636.64 101.15 636.65 102.65"/><polyline class="cls-7" points="688.51 38.15 688.57 69.65 688.64 101.15 688.64 102.65"/><polyline class="cls-7" points="735.64 102.65 735.64 101.15 735.57 69.65 735.5 38.15"/><polygon class="cls-1" points="60.93 7.89 59.69 4.68 70.09 1.03 75.58 1.03 75.58 32.23 69.36 32.23 69.36 4.96 69.21 4.96 60.93 7.89"/><path class="cls-1" d="M348.51,319.08H318.12v-2.59l5.05-3.22c12.16-7.58,17.65-11.62,17.73-16.32,0-3.17-2.35-6.1-9.45-6.1a21.44,21.44,0,0,0-10.11,2.64l-2-3a28.17,28.17,0,0,1,13.48-3.17c10.25,0,14.57,4.61,14.57,9.07,0,5.76-6.37,10.42-16.4,16.76l-3.81,2.3v.1h21.38Z" transform="translate(-194.5 -286.85)"/><path class="cls-1" d="M398.53,319.61a34.56,34.56,0,0,1-12.38-2.11l1.76-3.27a30.25,30.25,0,0,0,10.54,2c8.28,0,10.84-3.46,10.77-6.05-.07-4.37-6.08-6.24-12.3-6.24h-3.59v-3.17h3.59c4.68,0,10.62-1.58,10.62-5.28,0-2.49-2.42-4.7-8.35-4.7a24.05,24.05,0,0,0-9.52,2.06L388,289.75a31.64,31.64,0,0,1,12.45-2.4c9.38,0,13.62,3.65,13.62,7.44,0,3.22-2.92,5.95-8.78,7.34v.1c5.86.77,10.62,3.65,10.62,8C415.89,315.24,410,319.61,398.53,319.61Z" transform="translate(-194.5 -286.85)"/><polygon class="cls-1" points="266.75 23.73 248.5 23.73 248.5 20.95 266.02 1.03 271.76 1.03 271.76 20.42 277.26 20.42 277.26 23.73 271.76 23.73 271.76 32.23 266.75 32.23 266.75 23.73"/><path class="cls-1" d="M503.47,319.61a33.33,33.33,0,0,1-11.87-1.92l1.61-3.22a30.33,30.33,0,0,0,10.18,1.73c6.08,0,11.28-2.59,11.28-6.77s-4.17-6.91-13.69-6.91c-2.71,0-4.84.19-6.59.33l3.07-15h22.78v3.55H502.08l-1.84,8a37.24,37.24,0,0,1,3.89-.2,28.89,28.89,0,0,1,10.25,1.68c3.73,1.4,6.81,4.08,6.81,8C521.19,315.05,513.79,319.61,503.47,319.61Z" transform="translate(-194.5 -286.85)"/><path class="cls-1" d="M543.74,306.31c0-6.14,3.37-11,8.06-14.06,4-2.55,9.23-4.13,15.23-4.61a44.78,44.78,0,0,1,4.69-.24v3.45a36.93,36.93,0,0,0-4.83.19c-10.11,1.11-15.46,6-16.56,11.09h.22c2.27-2,6.23-3.6,11.5-3.6,8.42,0,14.36,4,14.36,10.08,0,5.72-5.94,11-15.82,11C550.41,319.61,543.74,314.42,543.74,306.31Z" transform="translate(-194.5 -286.85)"/><polygon class="cls-1" points="426.94 4.53 403.65 4.53 403.65 1.03 433.68 1.03 433.68 3.81 412.95 32.23 406.29 32.23 426.94 4.63 426.94 4.53"/><path class="cls-1" d="M658.86,302.81l-.07-.15c-5.27-1.63-7.55-4.32-7.55-7,0-4.94,6.38-8.3,14.73-8.3,9.22,0,13.84,3.79,13.84,7.68,0,2.64-2,5.47-7.84,7.3v.14c5.93,1.54,9.6,4.27,9.6,8.06,0,5.43-7.11,9.08-16.19,9.08-10,0-16-3.89-16-8.45C649.41,307.22,653,304.44,658.86,302.81Z" transform="translate(-194.5 -286.85)"/><path class="cls-1" d="M702.43,298.44c0-5.91,6.52-11.09,16.26-11.09s15.75,5.18,15.75,13.15a16.76,16.76,0,0,1-8.2,14.64,30.49,30.49,0,0,1-13.85,4.18,45.18,45.18,0,0,1-5.93.24V316.1a40.82,40.82,0,0,0,5.2-.14,23.09,23.09,0,0,0,10-3,13,13,0,0,0,6.3-8.31h-.22c-2.64,2.11-6.44,3.36-11.21,3.36C707.93,308,702.43,303.77,702.43,298.44Z" transform="translate(-194.5 -286.85)"/><polygon class="cls-1" points="566.52 7.89 565.27 4.68 575.67 1.03 581.17 1.03 581.17 32.23 574.94 32.23 574.94 4.96 574.79 4.96 566.52 7.89"/><path class="cls-1" d="M792.36,303.57c0-10.46,6.88-16.22,16.55-16.22,10,0,15.75,5.86,15.75,15.79,0,10.61-6,16.47-16.55,16.47C798.8,319.61,792.51,313.9,792.36,303.57Z" transform="translate(-194.5 -286.85)"/><polygon class="cls-1" points="656.81 7.89 655.57 4.68 665.97 1.03 671.46 1.03 671.46 32.23 665.23 32.23 665.23 4.96 665.09 4.96 656.81 7.89"/><polygon class="cls-1" points="694.38 7.89 693.13 4.68 703.53 1.03 709.03 1.03 709.03 32.23 702.8 32.23 702.8 4.96 702.65 4.96 694.38 7.89"/><polygon class="cls-1" points="747.1 7.89 745.86 4.68 756.26 1.03 761.75 1.03 761.75 32.23 755.53 32.23 755.53 4.96 755.38 4.96 747.1 7.89"/><path class="cls-1" d="M1004,319.08H973.61v-2.59l5-3.22c12.16-7.58,17.65-11.62,17.72-16.32,0-3.17-2.34-6.1-9.45-6.1a21.4,21.4,0,0,0-10.1,2.64l-2.05-3a28.12,28.12,0,0,1,13.47-3.17c10.26,0,14.58,4.61,14.58,9.07,0,5.76-6.37,10.42-16.41,16.76l-3.81,2.3v.1H1004Z" transform="translate(-194.5 -286.85)"/></svg>