<svg id="Layer_1" data-name="Layer 1" xmlns="http://www.w3.org/2000/svg" viewBox="0 0 796 184"><defs><style>.cls-1{fill:#fbb03b;}.cls-2{fill:lime;}.cls-3{fill:red;}</style></defs><circle class="cls-1" cx="420" cy="88" r="87.5"/><path d="M610,268a87,87,0,1,1-87,87,87.1,87.1,0,0,1,87-87m0-1a88,88,0,1,0,88,88,88,88,0,0,0-88-88Z" transform="translate(-190 -267)"/><circle class="cls-2" cx="88" cy="96" r="87.5"/><path d="M278,276a87,87,0,1,1-87,87,87.1,87.1,0,0,1,87-87m0-1a88,88,0,1,0,88,88,88,88,0,0,0-88-88Z" transform="translate(-190 -267)"/><circle class="cls-3" cx="708" cy="88" r="87.5"/><path d="M898,268a87,87,0,1,1-87,87,87.1,87.1,0,0,1,87-87m0-1a88,88,0,1,0,88,88,88,88,0,0,0-88-88Z" transform="translate(-190 -267)"/></svg>